<?xml version='1.0' encoding='utf-8'?>
<svg xmlns="http://www.w3.org/2000/svg" id="Livello_1" version="1.1" viewBox="0 0 352.5 105.4">
  <!-- Generator: Adobe Illustrator 29.2.1, SVG Export Plug-In . SVG Version: 2.1.0 Build 116)  -->
  <defs>
    <style>
      .st0 {
        fill: #c0000a;
      }
    </style>
  </defs>
  <rect class="st0" y="22.1" width="11.6" height="63.4"/>
  <polygon class="st0" points="21.8 22.1 33.5 22.1 33.5 75.8 59.8 75.8 59.8 85.5 21.8 85.5 21.8 22.1"/>
  <polygon class="st0" points="76.9 0 88.2 0 88.2 96.2 123.9 96.2 123.9 105.4 76.9 105.4 76.9 0"/>
  <rect class="st0" x="99.7" y="22.1" width="11.6" height="63.4"/>
  <g>
    <path class="st0" d="M134.7,77.1c1.5.3,3.5.4,6.2.4,7.5,0,14.2-2.8,14.2-10.6s-6.5-10.4-14.6-10.4h-5.8v20.7h0ZM134.7,48.1h6c8.1,0,12.5-3.8,12.5-9.2s-4.6-8.7-11.9-8.7-5.4.2-6.7.5v17.3h0ZM123.2,23c3.7-.7,10.5-1.4,17-1.4s13.9,1.1,18.2,4.1c4,2.3,6.6,6.5,6.6,11.9s-3.7,11.1-10.6,13.6v.3c6.8,1.7,12.9,6.9,12.9,15.7s-2.4,10-6.2,13.1c-4.5,3.9-12,5.9-23.6,5.9s-11.3-.5-14.4-.8V23h.1Z"/>
    <path class="st0" d="M184.4,51h6.8c7.9,0,12.8-4.1,12.8-10.5s-4.9-10.1-12.4-10.1-6.1.3-7.2.5v20h0ZM172.8,23c4.5-.8,10.9-1.4,17.7-1.4s15.4,1.5,19.7,5.1c3.5,2.9,5.5,7.2,5.5,12.7,0,8.1-5.6,13.7-11.6,15.8v.3c4.6,1.8,7.4,6.1,9,12.3,2,7.9,3.7,15.2,5,17.7h-12c-1-1.8-2.5-7-4.3-15-1.8-8.2-4.9-10.9-11.5-11.1h-5.9v26.1h-11.6V23h0Z"/>
    <path class="st0" d="M251.7,58.9l-5-15.7c-1.2-3.9-2.3-8.2-3.2-11.9h-.2c-.9,3.7-1.9,8.1-3,11.9l-4.9,15.7h16.4-.1ZM233.4,67.6l-5.5,17.9h-12l20.5-63.4h14.9l20.7,63.4h-12.5l-5.8-17.9h-20.3Z"/>
  </g>
  <rect class="st0" x="274.8" y="22.1" width="11.6" height="63.4"/>
  <path class="st0" d="M322.4,77.3c11.3,0,17.6-10.4,17.6-23.6s-6-23.3-17.6-23.3-17.7,11-17.7,23.6,6.5,23.3,17.6,23.3h.1ZM321.9,86.6c-18,0-29.4-13.7-29.4-32.3s12.4-33.2,30.4-33.2,29.6,14,29.6,32.1-12.9,33.4-30.4,33.4h-.2Z"/>
</svg>
