<?xml version='1.0' encoding='utf-8'?>
<svg xmlns="http://www.w3.org/2000/svg" id="Livello_2" version="1.1" viewBox="0 0 126.7 126.7">
  <!-- Generator: Adobe Illustrator 29.2.1, SVG Export Plug-In . SVG Version: 2.1.0 Build 116)  -->
  <g id="Layer_1">
    <path d="M0,0h0v126.6h126.7c0,0,0-126.6,0-126.6H0c0,0,0,0,0,0ZM2.1,3.5c.2.2,16.3,16.3,16.3,16.3C9.5,29.3,4,40.5,2,52.8v-24.3c0-12.4,0-24.8,0-25h0ZM2,52.8c.4-2.3,1-4.6,1.6-6.8-.7,2.3-1.2,4.7-1.6,7.1v-.3h0ZM21.6,2c11.6,0,24.4,0,24.8,0-9.5,2.5-18.2,7.7-25.9,15.3l-.7.7c-.1.2-16-15.7-16.4-16.1h18.2ZM24.9,124.7c-10.6,0-21.2,0-21.3,0l16.1-16.1c0,0,1.1,1.2,1.1,1.2,7.8,7.8,15.8,12.6,24.9,14.9h-20.8ZM26.1,24.7s0,0,0-.1c0,0,0,0,0,.1h0,0ZM30,31.4c5.7,5.8,30.5,30.6,30.9,31h-15.4c-10,0-21.2,0-21.2,0,.1-13.3,1.6-23.8,4.4-32.2l1.2,1.2h0ZM27.4,93c-2-7.7-3-17.1-3-28.6h36.6l-2.4,2.4c-7.5,7.4-29.9,29.8-30.1,30-.4-1.2-.8-2.5-1.1-3.8h0ZM45.8,64.3h15.2,0s-15.2,0-15.2,0ZM27.8,33.1c.3-1,.6-2,.9-2.9h0c-.3,1-.6,1.9-.9,2.9h0ZM19.9,64.4c0,14.9,1.7,26.6,5.2,35.8,0,0-3.8,3.7-3.8,3.7-.3-.3-.6-.7-.8-1-6.9-8-14.8-20.9-14.9-38.7,0,0,14.2,0,14.3,0h0ZM32.3,113.8c-2.9-2.1-5.7-4.4-8.5-7.1l-1.2-1.2c0,0,3-3,3.2-3.1,2.2,5.3,5.1,9.6,8.6,12.9-.7-.5-1.5-1-2.2-1.5ZM28.5,96.8c0,0,.5-.5,1.2-1.2l-1.2,1.2h0ZM60.9,62.4c0-.1-.9-1-2.3-2.4l2.4,2.4h0ZM27,22.5h0s-1,2.1-1,2.2h0c-.4-.6-3.1-3.3-3.1-3.3,0,0,.6-.5.6-.5l.3-.3c3.5-3.5,7.3-6.5,11.4-8.9-.7.7-1.4,1.4-2.1,2.1-2.4,2.5-4.4,5.5-6,8.8h0ZM35.1,11.7c-.9.5-1.7,1-2.6,1.6.9-.6,1.8-1.2,2.8-1.7,0,0-.1.1-.2.2ZM25.3,26.7c-3.5,9-5.2,20.7-5.4,35.7,0,0-14.2,0-14.3,0,.4-15.3,5.7-28.6,15.9-39.5,0,0,3.8,3.9,3.8,3.9h0ZM5.5,64.3c0,1.2.1,2.3.2,3.4,0-1.2-.2-2.3-.2-3.4h0ZM19.6,108.5h0ZM34.5,115.2c-.7-.7-1.3-1.4-1.9-2.1.7.8,1.4,1.5,2.1,2.2,0,0-.1,0-.2-.1h0ZM62.3,119.6c-.1,0-2.1,0-2.1,0-10.6,0-16.2-1.8-22.2-7.3-3.6-3.3-6.6-7.8-8.7-13.6,0,0,32.7-32.6,33.1-33.1v22.3c0,14.8,0,31.4,0,31.5ZM62.4,65.8c-.1,0-1,1-2.4,2.4l2.4-2.4h0ZM29.5,28.1c5.6-14.2,15.6-21.1,30.8-21.1h2c0,0,0,53.6,0,53.9-.2-.2-32.8-32.8-32.8-32.8h0ZM21.4,22.8h0c-1.2,1.3-2.3,2.6-3.4,3.9,1.2-1.5,2.4-2.8,3.4-3.9ZM12.8,34.7c.5-.8.9-1.6,1.4-2.4-.5.8-.9,1.6-1.4,2.4ZM15.2,30.7c.8-1.2,1.5-2.2,2.3-3.2-.8,1-1.6,2.1-2.3,3.2ZM2.1,74.8c2.1,11.9,7.5,22.8,16.1,32.3,0,0-15.8,15.7-16.2,16.1v-20.4c0-13,0-27.5,0-28ZM5.7,87.3c0,0,0,.2.1.3,0,0,0-.2-.1-.3ZM7.5,91.4c0,.2.1.3.2.4l-.2-.4ZM9.7,95.4c0,.1.2.3.2.4,0-.1-.2-.3-.2-.4ZM12.2,99.4c0,.1.1.2.2.3,0,0-.1-.2-.2-.3ZM15.1,103.4s0,0,0,.1c0,0,0,0,0-.1ZM2,123.3c.1,0,.5-.5,1.2-1.1l-1.2,1.2h0ZM45.7,124.7c-2.1-.6-4.2-1.3-6.2-2.1,2.1.9,4.2,1.6,6.4,2.1h-.2,0ZM3.4,2c0,0,.5.5,1.1,1.2l-1.2-1.2s0,0,0,0ZM116.2,124.7c-4.6,0-9.8,0-9.8,0v-16.9l1.2,1.2c3.8,3.9,15.3,15.4,15.7,15.7h-7.1,0ZM106.3,112.4v-4.7h0s0,4.8,0,4.8h0ZM123.3,124.7c0-.1-.5-.6-1.2-1.2l1.2,1.2h0ZM124.6,123.2c-.2-.2-18.3-18.3-18.3-18.3v-39.5h18.4c0,0,0,57.5,0,57.8h0ZM64.4,7.2c18.2,1.7,25.5,14.7,28.4,25.3,0,0-28,28-28.5,28.4v-22.3c0-14.7,0-31.4,0-31.4h0ZM64.3,61c.1,0,.9-.8,2.1-2l-2.1,2.1h0ZM75.5,2.6l-1.5-.6h11.2c5.9,0,11.8,0,11.9,0-.1.2-.8,1.1-.8,1.1-1.1,1.4-4.4,3.5-8,3.5s-5-1-7.8-2.1l-1.4-.5c-1.1-.5-2.3-.9-3.6-1.4h0ZM93.9,23c-.2-.3-.3-.6-.5-1-.6-1.1-1.2-2.2-1.9-3.3-.4-.6-.8-1.2-1.2-1.8-.4-.6-.9-1.2-1.3-1.7-.7-.8-1.4-1.6-2.1-2.4-.4-.4-.9-.8-1.3-1.2-.4-.4-.8-.8-1.2-1.2,1,.2,2,.4,3.1.5.5,0,.9.1.9.1,2.6,0,5.1-.7,7.6-2v18.7c-.6-1.5-1.2-3.1-2-4.7h0ZM95.9,18.7v9.2s0,0,0-.1v-9.1ZM84.3,10.5c.3.2.5.5.7.7-.3-.3-.5-.5-.8-.8,0,0,0,0,0,0ZM87.9,14.1c0-.1-.2-.2-.3-.3,0,.1.2.2.3.3ZM100.3,27.8S124.3,3.9,124.7,3.5v23.9c0,15.8,0,33.6,0,33.7h-57.6l2-2c6.1-6.1,24.1-24.1,24.4-24.3,0,0,0,.1,0,.2,0,.8.6,3.5.6,3.5l.3,1.8h5.9s0-12.5,0-12.5ZM94.9,124.7c-9.1,0-20.5,0-20.9,0,5.2-1.4,9.1-3.5,12.2-5.2,3.2-1.7,5.9-3.2,8.7-3.2,6,0,11,8.1,11.1,8.4h-11.2ZM81.1,116.5c.3-.3.7-.6,1-.9.5-.5,1-.9,1.4-1.5.1-.2.3-.3.4-.5.6-.7,1.2-1.4,1.7-2.3,0,0,0,0,0-.1,2.8-4.2,5-9.8,5-17.5v-1.8l.8.8c2.5,2.6,10.4,10.4,10.4,10.5v11.1c-.5-.3-1-.6-1.5-.9-1.9-1.1-3.7-1.6-5.5-1.6-3.9,0-7.1,1.7-10.8,3.7l-5,2.5c.5-.4,1-.8,1.5-1.3.1-.1.2-.2.4-.3h0ZM79.2,118.1c.4-.1,1.6-.7,2.8-1.3-.9.5-1.9.9-2.9,1.4,0,0,0,0,.1,0h0ZM102,100.6h0s0-14.6,0-14.6v14.6ZM102,65.5s0,34.5,0,35.1l-.8-.8c-2.5-2.6-10.4-10.4-10.4-10.5v-23.8h11.3c0,0,0,0,0,0ZM102,110.6v3.9s0,0,0,0c0,0,0-3.9,0-3.9ZM79.2,112.3c.3-.3.6-.7.9-1-.3.3-.6.7-.9,1ZM90.6,92h0s0,.7,0,.7v-.7ZM88.3,106.3h0ZM80.8,110.5c.2-.2.3-.4.5-.6-.2.2-.3.4-.5.6ZM82.3,108.5s0-.1,0-.2c0,0,0,.1,0,.2ZM74.9,65.4h11.4c0,0,0,19.1,0,19.3-.2-.2-18.9-18.9-19.3-19.3h8ZM92.2,35.9l1.3-1.3h0c0,.1-.5.5-1.3,1.3ZM66.9,65.4c0,.1.6.6,1.4,1.4l-1.4-1.4h0ZM64.4,65.9c.2.2,21.9,21.9,21.9,21.9v6.1c0,16.6-11.8,24.1-21.9,25.6v-6.3c0-14.1,0-47,0-47.2h0ZM64.3,119.5c.5,0,1-.2,1.4-.3-.5,0-1,.2-1.4.3h0ZM77.4,113.9c-2.2,1.8-4.7,3.1-7.3,4.1,2.6-.9,5.1-2.3,7.3-4.1ZM70,118c-.6.2-1.2.4-1.8.6.6-.2,1.2-.4,1.8-.6ZM67.7,118.8c-.5.1-1,.3-1.5.4.5-.1,1-.2,1.5-.4ZM78.8,112.6c-.4.4-.9.8-1.3,1.2.5-.4.9-.8,1.3-1.2ZM106.1,124.7c0,0-.1-.3-.3-.6.2.3.4.6.4.6h0ZM67,61.1h0s23.9,0,23.9,0h-24ZM124.7,3.5c-.1,0-.8.7-1.8,1.7l1.8-1.8s0,0,0,0ZM121.5,3.8c-5.3,5.2-20.8,20.7-21.2,21.1V2s22.3,0,23,0l-1.7,1.7h0ZM123.3,2.1h-9.5s9.6,0,9.6,0h0s0,0,0,0ZM73.9,2c0,0,.1,0,.3.1-.1,0-.3,0-.4-.1,0,0,.1,0,.1,0Z" style="fill: #1d1d1b;"/>
  </g>
</svg>
