<?xml version='1.0' encoding='utf-8'?>
<svg xmlns="http://www.w3.org/2000/svg" id="Livello_2" version="1.1" viewBox="0 0 253.4 196.4">
  <!-- Generator: Adobe Illustrator 29.2.1, SVG Export Plug-In . SVG Version: 2.1.0 Build 116)  -->
  <g id="Layer_1">
    <g>
      <path d="M51.1,176.7h-6.1c-.2,2.3-.6,5.3-1.8,8.3-2.1,4.8-7.9,11.4-18.8,11.4s-11.8,0-18.9-10.8C.9,178.8,0,171.9,0,166.4s1.2-13.7,6.3-20.4c3.7-5,10.3-10.5,19.1-10.5s9.3,2.3,13.1,4.6l2.6-3.6h1.4l.5,17.4h-1.5c-.8-4.3-3.1-8.7-4.5-10.6-2.6-3.3-7-6-12.1-6s-9.6,2.2-11.8,6.5c-2.5,4.8-2.7,16.4-2.7,22.3s0,10.8.8,16.2c.4,2.8,1.8,12.4,12.6,12.4s8.3-3.2,9.4-4.8c2.4-3.7,2.4-8.3,2.4-13.2h-9.2v-1.8h24.8v1.8h0Z" style="fill: #1d1d1b;"/>
      <path d="M81.1,161.1h13.1v8.8c1.3-3.6,3.5-9.6,9.5-9.6s5,2.3,5,4.8-1.5,4.3-3.5,4.3-3-1.8-3.2-4.1v-.8c-.2-.7-.3-1.1-1.1-1.1s-2.4.3-4.2,4.2c-2.4,5.6-2.5,10.6-2.6,15.8v10.3h5.9v1.6h-21.5l2.5-1.6h6.3v-31.1h-6.3v-1.6h0Z" style="fill: #1d1d1b;"/>
      <path d="M136.3,180.9v14.5h-29.1l21.3-32.7h-1.8c-5.3,0-7.5.4-9.3,2.3-1.8,1.8-2.3,3.3-4.3,9.5h-1.1l.3-13.3h25.5l-21.6,32.7h5.5c5.7,0,8.4-.2,10.6-3.8,1.5-2.5,2.8-7.3,3.1-9.2h.9Z" style="fill: #1d1d1b;"/>
      <path d="M190.6,195.4h-22.7l3.9-1.6h5.9v-31.1h-5.9v-1.6h12.8v5.3c1.2-1.7,4.5-6.3,11.6-6.3s7,1.6,8.7,3.5c2.6,2.9,2.5,6.5,2.5,9.5v20.7h6v1.6h-18.7v-1.6h5.8v-22.6c0-2.9,0-4-.3-5.1-1.1-3.8-4.6-3.8-5.5-3.8-1.8,0-3.8.7-5.6,1.9-4.3,3.3-4.4,8.2-4.5,14.8v14.8h6.1v1.6h0Z" style="fill: #1d1d1b;"/>
      <path d="M233.6,162.7h-9.5v24.7c0,2.3,0,6.2,4.5,6.2s5.1-3.6,5.3-4.8h1.6c-.6,4.2-3.2,7.3-9.1,7.3s-7.5-2.3-8.4-5.1c-.6-1.6-.6-3.3-.6-7.5v-20.9h-5.8v-1.1c4.7-2,9.6-7.9,11.6-14.3h.9v13.8h9.5v1.6Z" style="fill: #1d1d1b;"/>
      <path d="M220.1,161.1h28v32.7h5.3v1.6h-17.6v-1.6h5.3v-31.1h-21.1v-1.6h0ZM244.4,137.9c2.7,0,4.8,2.2,4.8,4.8s-2.2,4.8-4.8,4.8-4.8-2.2-4.8-4.8,2.2-4.8,4.8-4.8Z" style="fill: #1d1d1b;"/>
      <path d="M79.6,193.8c-.2,0-.4,0-.7,0-2.3,0-2.3-1.6-2.4-4.9v-17.4c0-3,0-5.8-2-8.2-2-2.3-5.8-3.5-9.7-3.5-7.6,0-12.9,4.5-12.9,8.8s.8,3.8,3.2,3.8,3.3-2,3.3-3.5-.3-1.8-.9-2.5c-.4-.5-.8-1.2-.8-1.5,0-1.3,3.3-3.6,7.1-3.6,6.1,0,6.1,4.4,6.1,6.3v8.4c-8.5,0-13.3,1.7-16.2,3.9-3.5,2.7-4.1,5.8-4.1,7.9,0,4.3,2.9,8.1,9.1,8.1s8.7-2.3,11-7.3c.3,2.3.8,7.3,6.7,7.3s4.1-.8,5.7-2.3h-2.3ZM69.8,180.6c-.2,4.1-.3,7.4-3.3,10-.8.8-2.4,1.8-4.8,1.8s-5.6-1.8-5.6-5.9.9-5.5,5.2-7.4c3.1-1.4,6.1-1.5,8.4-1.5v3Z" style="fill: #1d1d1b;"/>
      <path d="M170,193.8c-.2,0-.4,0-.7,0-2.3,0-2.3-1.6-2.4-4.9v-17.4c0-3,0-5.8-2-8.2-2-2.3-5.8-3.5-9.7-3.5-7.6,0-12.9,4.5-12.9,8.8s.8,3.8,3.2,3.8,3.3-2,3.3-3.5-.3-1.8-.9-2.5c-.4-.5-.8-1.2-.8-1.5,0-1.3,3.3-3.6,7.1-3.6,6.1,0,6.1,4.4,6.1,6.3v8.4c-8.5,0-13.3,1.7-16.2,3.9-3.5,2.7-4.1,5.8-4.1,7.9,0,4.3,2.9,8.1,9.1,8.1s8.7-2.3,11-7.3c.3,2.3.8,7.3,6.7,7.3s4.1-.8,5.7-2.3h-2.3,0ZM160.2,180.6c-.2,4.1-.3,7.4-3.3,10-.8.8-2.4,1.8-4.8,1.8s-5.6-1.8-5.6-5.9.9-5.5,5.2-7.4c3.1-1.4,6.1-1.5,8.4-1.5v3Z" style="fill: #1d1d1b;"/>
    </g>
    <path d="M65.2,0h0v126.6h126.7c0,0,0-126.6,0-126.6h-126.7c0,0,0,0,0,0ZM67.2,3.5c.2.2,16.3,16.3,16.3,16.3-8.8,9.5-14.3,20.6-16.3,33v-24.3c0-12.4,0-24.8,0-25h0ZM67.1,52.8c.4-2.3,1-4.6,1.6-6.8-.7,2.3-1.2,4.7-1.6,7.1v-.3h0ZM86.7,2c11.6,0,24.4,0,24.8,0-9.5,2.5-18.2,7.7-25.9,15.3l-.7.7c-.1.2-16-15.7-16.4-16.1h18.2ZM90,124.7c-10.6,0-21.2,0-21.3,0l16.1-16.1c0,0,1.1,1.2,1.1,1.2,7.8,7.8,15.8,12.6,24.9,14.9h-20.8ZM91.2,24.7s0,0,0-.1c0,0,0,0,0,.1h0,0ZM95.1,31.4c5.7,5.8,30.5,30.6,30.9,31h-15.4c-10,0-21.2,0-21.2,0,.1-13.3,1.6-23.8,4.4-32.2l1.2,1.2h0ZM92.5,93c-2-7.7-3-17.1-3-28.6h36.6l-2.4,2.4c-7.5,7.4-29.9,29.8-30.1,30-.4-1.2-.8-2.5-1.1-3.8h0ZM110.9,64.3h15.2,0s-15.2,0-15.2,0ZM92.9,33c.3-1,.6-2,.9-2.9h0c-.3,1-.6,1.9-.9,2.9h0ZM85,64.4c0,14.9,1.7,26.6,5.2,35.8,0,0-3.8,3.7-3.8,3.7-.3-.3-.6-.7-.8-1-6.9-8-14.8-20.9-14.9-38.7,0,0,14.2,0,14.3,0h0ZM97.4,113.8c-2.9-2.1-5.7-4.4-8.5-7.1l-1.2-1.2c0,0,3-3,3.2-3.1,2.2,5.3,5.1,9.6,8.6,12.9-.7-.5-1.5-1-2.2-1.5ZM93.6,96.8c0,0,.5-.5,1.2-1.2l-1.2,1.2h0ZM126,62.4c0-.1-.9-1-2.3-2.4l2.4,2.4h0ZM92.1,22.5h0s-1,2.1-1,2.2h0c-.4-.6-3.1-3.3-3.1-3.3,0,0,.6-.5.6-.5l.3-.3c3.5-3.5,7.3-6.5,11.4-8.9-.7.7-1.4,1.4-2.1,2.1-2.4,2.5-4.4,5.5-6,8.8h0ZM100.2,11.7c-.9.5-1.7,1-2.6,1.6.9-.6,1.8-1.2,2.8-1.7,0,0-.1.1-.2.2ZM90.4,26.7c-3.5,9-5.2,20.7-5.4,35.7,0,0-14.2,0-14.3,0,.4-15.3,5.7-28.6,15.9-39.5,0,0,3.8,3.9,3.8,3.9h0ZM70.6,64.3c0,1.2.1,2.3.2,3.4,0-1.2-.2-2.3-.2-3.4h0ZM84.7,108.5h0ZM99.6,115.2c-.7-.7-1.3-1.4-1.9-2.1.7.8,1.4,1.5,2.1,2.2,0,0-.1,0-.2-.1h0ZM127.4,119.6c-.1,0-2.1,0-2.1,0-10.6,0-16.2-1.8-22.2-7.3-3.6-3.3-6.6-7.8-8.7-13.6,0,0,32.7-32.6,33.1-33.1v22.3c0,14.8,0,31.4,0,31.5ZM127.5,65.8c-.1,0-1,1-2.4,2.4l2.4-2.4h0ZM94.6,28.1c5.6-14.2,15.6-21.1,30.8-21.1h2c0,0,0,53.6,0,53.9-.2-.2-32.8-32.8-32.8-32.8h0ZM86.5,22.8h0c-1.2,1.3-2.3,2.6-3.4,3.9,1.2-1.5,2.4-2.8,3.4-3.9ZM77.9,34.7c.5-.8.9-1.6,1.4-2.4-.5.8-.9,1.6-1.4,2.4ZM80.3,30.6c.8-1.2,1.5-2.2,2.3-3.2-.8,1-1.6,2.1-2.3,3.2ZM67.2,74.8c2.1,11.9,7.5,22.8,16.1,32.3,0,0-15.8,15.7-16.2,16.1v-20.4c0-13,0-27.5,0-28ZM70.8,87.3c0,0,0,.2.1.3,0,0,0-.2-.1-.3ZM72.6,91.4c0,.2.1.3.2.4l-.2-.4ZM74.8,95.4c0,.1.2.3.2.4,0-.1-.2-.3-.2-.4ZM77.3,99.4c0,.1.1.2.2.3,0,0-.1-.2-.2-.3ZM80.2,103.4s0,0,0,.1c0,0,0,0,0-.1ZM67.1,123.3c.1,0,.5-.5,1.2-1.1l-1.2,1.2h0ZM110.8,124.7c-2.1-.6-4.2-1.3-6.2-2.1,2.1.9,4.2,1.6,6.4,2.1h-.2,0ZM68.5,2c0,0,.5.5,1.1,1.2l-1.2-1.2s0,0,0,0ZM181.3,124.7c-4.6,0-9.8,0-9.8,0v-16.9l1.2,1.2c3.8,3.9,15.3,15.4,15.7,15.7h-7.1,0ZM171.4,112.4v-4.7h0s0,4.8,0,4.8h0ZM188.4,124.7c0-.1-.5-.6-1.2-1.2l1.2,1.2h0ZM189.7,123.2c-.2-.2-18.3-18.3-18.3-18.3v-39.5h18.4c0,0,0,57.5,0,57.8h0ZM129.5,7.2c18.2,1.7,25.5,14.7,28.4,25.3,0,0-28,28-28.5,28.4v-22.3c0-14.7,0-31.4,0-31.4h0ZM129.4,60.9c.1,0,.9-.8,2.1-2l-2.1,2.1h0ZM140.6,2.6l-1.5-.6h11.2c5.9,0,11.8,0,11.9,0-.1.2-.8,1.1-.8,1.1-1.1,1.4-4.4,3.5-8,3.5s-5-1-7.8-2.1l-1.4-.5c-1.1-.5-2.3-.9-3.6-1.4h0ZM159,23c-.2-.3-.3-.6-.5-1-.6-1.1-1.2-2.2-1.9-3.3-.4-.6-.8-1.2-1.2-1.8-.4-.6-.9-1.2-1.3-1.7-.7-.8-1.4-1.6-2.1-2.4-.4-.4-.9-.8-1.3-1.2-.4-.4-.8-.8-1.2-1.2,1,.2,2,.4,3.1.5.5,0,.9.1.9.1,2.6,0,5.1-.7,7.6-2v18.7c-.6-1.5-1.2-3.1-2-4.7h0ZM161,18.7v9.2s0,0,0-.1v-9.1ZM149.4,10.5c.3.2.5.5.7.7-.3-.3-.5-.5-.8-.8,0,0,0,0,0,0ZM153,14.1c0-.1-.2-.2-.3-.3,0,.1.2.2.3.3ZM165.4,27.8s24-23.9,24.4-24.4v23.9c0,15.8,0,33.6,0,33.7h-57.6l2-2c6.1-6.1,24.1-24.1,24.4-24.3,0,0,0,.1,0,.2,0,.8.6,3.5.6,3.5l.3,1.8h5.9s0-12.5,0-12.5ZM160,124.7c-9.1,0-20.5,0-20.9,0,5.2-1.4,9.1-3.5,12.2-5.2,3.2-1.7,5.9-3.2,8.7-3.2,6,0,11,8.1,11.1,8.4h-11.2ZM146.2,116.5c.3-.3.7-.6,1-.9.5-.5,1-.9,1.4-1.5.1-.2.3-.3.4-.5.6-.7,1.2-1.4,1.7-2.3,0,0,0,0,0-.1,2.8-4.2,5-9.8,5-17.5v-1.8l.8.8c2.5,2.6,10.4,10.4,10.4,10.5v11.1c-.5-.3-1-.6-1.5-.9-1.9-1.1-3.7-1.6-5.5-1.6-3.9,0-7.1,1.7-10.8,3.7l-5,2.5c.5-.4,1-.8,1.5-1.3.1-.1.2-.2.4-.3h0ZM144.3,118.1c.4-.1,1.6-.7,2.8-1.3-.9.5-1.9.9-2.9,1.4,0,0,0,0,.1,0h0ZM167.1,100.6h0s0-14.6,0-14.6v14.6ZM167.1,65.5s0,34.5,0,35.1l-.8-.8c-2.5-2.6-10.4-10.4-10.4-10.5v-23.8h11.3c0,0,0,0,0,0ZM167.1,110.5v3.9s0,0,0,0c0,0,0-3.9,0-3.9ZM144.3,112.2c.3-.3.6-.7.9-1-.3.3-.6.7-.9,1ZM155.7,92h0s0,.7,0,.7v-.7ZM153.4,106.3h0ZM145.9,110.5c.2-.2.3-.4.5-.6-.2.2-.3.4-.5.6ZM147.4,108.5s0-.1,0-.2c0,0,0,.1,0,.2ZM140,65.4h11.4c0,0,0,19.1,0,19.3-.2-.2-18.9-18.9-19.3-19.3h8ZM157.3,35.9l1.3-1.3h0c0,.1-.5.5-1.3,1.3ZM132,65.4c0,.1.6.6,1.4,1.4l-1.4-1.4h0ZM129.5,65.8c.2.2,21.9,21.9,21.9,21.9v6.1c0,16.6-11.8,24.1-21.9,25.6v-6.3c0-14.1,0-47,0-47.2h0ZM129.4,119.4c.5,0,1-.2,1.4-.3-.5,0-1,.2-1.4.3h0ZM142.5,113.9c-2.2,1.8-4.7,3.1-7.3,4.1,2.6-.9,5.1-2.3,7.3-4.1ZM135.1,118c-.6.2-1.2.4-1.8.6.6-.2,1.2-.4,1.8-.6ZM132.8,118.7c-.5.1-1,.3-1.5.4.5-.1,1-.2,1.5-.4ZM143.9,112.6c-.4.4-.9.8-1.3,1.2.5-.4.9-.8,1.3-1.2ZM171.2,124.7c0,0-.1-.3-.3-.6.2.3.4.6.4.6h0ZM132.1,61.1h0s23.9,0,23.9,0h-24ZM189.8,3.4c-.1,0-.8.7-1.8,1.7l1.8-1.8s0,0,0,0ZM186.6,3.8c-5.3,5.2-20.8,20.7-21.2,21.1V2s22.3,0,23,0l-1.7,1.7h0ZM188.4,2.1h-9.5s9.6,0,9.6,0h0s0,0,0,0ZM139,2c0,0,.1,0,.3.1-.1,0-.3,0-.4-.1,0,0,.1,0,.1,0Z" style="fill: #1d1d1b;"/>
  </g>
</svg>
